<mxfile host="65bd71144e">
    <diagram id="qJu30wnDwlGVq5sHqMgF" name="Page-1">
        <mxGraphModel dx="850" dy="412" grid="1" gridSize="10" guides="1" tooltips="1" connect="1" arrows="1" fold="1" page="1" pageScale="1" pageWidth="827" pageHeight="1169" math="0" shadow="0">
            <root>
                <mxCell id="0"/>
                <mxCell id="1" parent="0"/>
                <mxCell id="5" value="Access" style="edgeStyle=none;html=1;" parent="1" source="2" edge="1">
                    <mxGeometry relative="1" as="geometry">
                        <mxPoint x="320" y="283" as="targetPoint"/>
                    </mxGeometry>
                </mxCell>
                <mxCell id="2" value="" style="sketch=0;pointerEvents=1;shadow=0;dashed=0;html=1;strokeColor=none;fillColor=#434445;aspect=fixed;labelPosition=center;verticalLabelPosition=bottom;verticalAlign=top;align=center;outlineConnect=0;shape=mxgraph.vvd.cpu;" parent="1" vertex="1">
                    <mxGeometry x="200" y="258" width="50" height="50" as="geometry"/>
                </mxCell>
                <mxCell id="7" value="" style="endArrow=classic;html=1;dashed=1;" parent="1" edge="1">
                    <mxGeometry width="50" height="50" relative="1" as="geometry">
                        <mxPoint x="460" y="310.2" as="sourcePoint"/>
                        <mxPoint x="460" y="260.2" as="targetPoint"/>
                    </mxGeometry>
                </mxCell>
                <mxCell id="8" value="" style="endArrow=classic;html=1;dashed=1;" parent="1" edge="1">
                    <mxGeometry width="50" height="50" relative="1" as="geometry">
                        <mxPoint x="460" y="310" as="sourcePoint"/>
                        <mxPoint x="640" y="310" as="targetPoint"/>
                    </mxGeometry>
                </mxCell>
                <mxCell id="9" value="Request" style="rounded=0;whiteSpace=wrap;html=1;rotation=-90;" parent="1" vertex="1">
                    <mxGeometry x="452.75" y="268.25" width="55" height="24.5" as="geometry"/>
                </mxCell>
                <mxCell id="11" value="t [cycles]" style="text;html=1;align=center;verticalAlign=middle;resizable=0;points=[];autosize=1;strokeColor=none;fillColor=none;" parent="1" vertex="1">
                    <mxGeometry x="640" y="300" width="60" height="20" as="geometry"/>
                </mxCell>
                <mxCell id="15" value="Read" style="rounded=0;whiteSpace=wrap;html=1;rotation=-90;" parent="1" vertex="1">
                    <mxGeometry x="590" y="268.25" width="55" height="24.5" as="geometry"/>
                </mxCell>
                <mxCell id="17" value="4 FWS" style="endArrow=baseDash;html=1;startArrow=baseDash;startFill=0;endFill=0;" parent="1" edge="1">
                    <mxGeometry width="50" height="50" relative="1" as="geometry">
                        <mxPoint x="493" y="243" as="sourcePoint"/>
                        <mxPoint x="604" y="243" as="targetPoint"/>
                    </mxGeometry>
                </mxCell>
                <mxCell id="18" value="wait" style="rounded=0;whiteSpace=wrap;html=1;fillColor=#f5f5f5;fontColor=#333333;strokeColor=none;" parent="1" vertex="1">
                    <mxGeometry x="493" y="253" width="111" height="55" as="geometry"/>
                </mxCell>
                <mxCell id="19" value="" style="endArrow=none;html=1;" parent="1" edge="1">
                    <mxGeometry width="50" height="50" relative="1" as="geometry">
                        <mxPoint x="493" y="306" as="sourcePoint"/>
                        <mxPoint x="493" y="306" as="targetPoint"/>
                        <Array as="points">
                            <mxPoint x="493" y="315"/>
                        </Array>
                    </mxGeometry>
                </mxCell>
                <mxCell id="20" value="" style="endArrow=none;html=1;" parent="1" edge="1">
                    <mxGeometry width="50" height="50" relative="1" as="geometry">
                        <mxPoint x="521" y="306.00000000000006" as="sourcePoint"/>
                        <mxPoint x="521" y="306.00000000000006" as="targetPoint"/>
                        <Array as="points">
                            <mxPoint x="521" y="315"/>
                        </Array>
                    </mxGeometry>
                </mxCell>
                <mxCell id="21" value="" style="endArrow=none;html=1;" parent="1" edge="1">
                    <mxGeometry width="50" height="50" relative="1" as="geometry">
                        <mxPoint x="549" y="306.00000000000006" as="sourcePoint"/>
                        <mxPoint x="549" y="306.00000000000006" as="targetPoint"/>
                        <Array as="points">
                            <mxPoint x="549" y="315"/>
                        </Array>
                    </mxGeometry>
                </mxCell>
                <mxCell id="22" value="" style="endArrow=none;html=1;" parent="1" edge="1">
                    <mxGeometry width="50" height="50" relative="1" as="geometry">
                        <mxPoint x="577" y="307.00000000000006" as="sourcePoint"/>
                        <mxPoint x="577" y="307.00000000000006" as="targetPoint"/>
                        <Array as="points">
                            <mxPoint x="577" y="316"/>
                        </Array>
                    </mxGeometry>
                </mxCell>
                <mxCell id="23" value="2" style="text;html=1;align=center;verticalAlign=middle;resizable=0;points=[];autosize=1;strokeColor=none;fillColor=none;fontSize=8;" parent="1" vertex="1">
                    <mxGeometry x="511" y="308" width="20" height="20" as="geometry"/>
                </mxCell>
                <mxCell id="24" value="4" style="text;html=1;align=center;verticalAlign=middle;resizable=0;points=[];autosize=1;strokeColor=none;fillColor=none;fontSize=8;" parent="1" vertex="1">
                    <mxGeometry x="594" y="307" width="20" height="20" as="geometry"/>
                </mxCell>
                <mxCell id="25" value="" style="endArrow=none;html=1;" parent="1" edge="1">
                    <mxGeometry width="50" height="50" relative="1" as="geometry">
                        <mxPoint x="605" y="306.00000000000006" as="sourcePoint"/>
                        <mxPoint x="605" y="306.00000000000006" as="targetPoint"/>
                        <Array as="points">
                            <mxPoint x="605" y="315"/>
                        </Array>
                    </mxGeometry>
                </mxCell>
                <mxCell id="26" value="Flash" style="verticalLabelPosition=bottom;html=1;verticalAlign=top;align=center;strokeColor=none;fillColor=#00BEF2;shape=mxgraph.azure.vhd;pointerEvents=1;" vertex="1" parent="1">
                    <mxGeometry x="330" y="253" width="40" height="50" as="geometry"/>
                </mxCell>
            </root>
        </mxGraphModel>
    </diagram>
</mxfile>